Coordinates
version=1
nRows=14
nColumns=42
inDegrees=yes

Units are S.I. units (second, meters, Newtons, ...)
If the header above contains a line with 'inDegrees', this indicates whether rotational values are in degrees (yes) or radians (no).

endheader
time	pelvis_tilt	pelvis_list	pelvis_rotation	pelvis_tx	pelvis_ty	pelvis_tz	hip_flexion_r	hip_adduction_r	hip_rotation_r	knee_angle_r	knee_adduction_r	knee_angle_r_beta	ankle_angle_r	subtalar_angle_r	mtp_angle_r	hip_flexion_l	hip_adduction_l	hip_rotation_l	knee_angle_l	knee_adduction_l	knee_angle_l_beta	ankle_angle_l	subtalar_angle_l	mtp_angle_l	lumbar_extension	lumbar_bending	lumbar_rotation	arm_flex_r	arm_add_r	arm_rot_r	elbow_flex_r	pro_sup_r	wrist_flex_r	wrist_dev_r	arm_flex_l	arm_add_l	arm_rot_l	elbow_flex_l	pro_sup_l	wrist_flex_l	wrist_dev_l
      4.50000000	      0.20852457	    -10.80988403	     -8.04871811	     -0.80584476	      0.82619632	      0.31985265	      3.48215221	     10.55389620	    -24.21355675	     21.17827890	     -2.47643518	      0.36963070	     22.63752409	     32.12259121	     -7.50132385	     29.14719116	    -23.81467946	    -29.24867631	     44.64874553	     -9.37865084	      0.77926762	     18.10277486	     28.12149849	     -7.50132385	    -27.02003534	      9.69353953	      2.60913182	     -8.34740009	     -2.80996687	    -11.99227895	    104.18845429	     90.00000001	      0.00000000	      0.00000000	      4.12317531	     -8.49670621	    -18.52021010	     45.85054959	     90.00000001	      0.00000000	      0.00000000
      4.51000000	      0.22966074	    -10.90053553	     -8.23403070	     -0.80291806	      0.82610480	      0.31884873	      3.20179398	     10.59971575	    -23.93595897	     21.12535820	     -2.56602724	      0.36870706	     22.77488477	     32.11236996	     -7.50130922	     28.85398500	    -23.74529064	    -29.25477847	     43.92647712	     -9.15040096	      0.76666165	     18.01121745	     28.33775685	     -7.50130922	    -26.96079598	      9.66057152	      2.61048970	     -8.37352282	     -2.85537044	    -12.14928793	    104.11157327	     90.00000001	      0.00000000	      0.00000000	      4.11095651	     -8.50714871	    -18.66907256	     45.69461100	     90.00000001	      0.00000000	      0.00000000
      4.52000000	      0.14867655	    -11.02512162	     -8.37473884	     -0.79986066	      0.82580407	      0.31763001	      3.04883519	     10.60706289	    -23.85074150	     21.13437156	     -2.55889734	      0.36886437	     22.82480189	     32.06985436	     -7.50130447	     28.75904322	    -23.76021812	    -29.28788800	     43.58593301	     -8.97549170	      0.76071804	     17.98335765	     28.34031317	     -7.50130447	    -26.79760754	      9.75618762	      2.53482258	     -8.42641172	     -2.85438462	    -12.24397287	    104.09872379	     90.00000001	      0.00000000	      0.00000000	      3.89965835	     -8.53306651	    -18.72139194	     45.58087036	     90.00000001	      0.00000000	      0.00000000
      4.53000000	      0.28107227	    -10.99951976	     -8.59326543	     -0.79687211	      0.82611877	      0.31654935	      2.60384646	     10.56046629	    -23.32375570	     20.93039814	     -2.66434354	      0.36530436	     23.12602535	     32.04531054	     -7.50128903	     28.13223818	    -23.52547383	    -29.28530884	     42.87675927	     -8.69827952	      0.74834062	     17.80570222	     28.56850737	     -7.50128903	    -26.84803363	      9.55377560	      2.58005221	     -8.38632585	     -2.75802485	    -12.46363218	    103.89268506	     90.00000001	      0.00000000	      0.00000000	      3.98432132	     -8.54215139	    -18.89902418	     45.30097910	     90.00000001	      0.00000000	      0.00000000
      4.54000000	      0.20862715	    -11.11306668	     -8.79058671	     -0.79373484	      0.82594073	      0.31529719	      2.43859817	     10.55685885	    -23.22421575	     20.95442055	     -2.68118532	      0.36572363	     23.14543110	     31.98392211	     -7.50128497	     27.95504349	    -23.48273826	    -29.24151923	     42.70184124	     -8.68142680	      0.74528773	     17.77434930	     28.54681795	     -7.50128497	    -26.67807128	      9.61425079	      2.51834274	     -8.45629258	     -2.76675259	    -12.54285297	    103.87760308	     90.00000001	      0.00000000	      0.00000000	      3.79364474	     -8.58134873	    -18.94485264	     45.20658656	     90.00000001	      0.00000000	      0.00000000
      4.55000000	      0.53336489	    -10.99072304	     -9.07756874	     -0.79053660	      0.82674516	      0.31413143	      1.72153800	     10.34779194	    -22.48755018	     20.66256149	     -2.67932692	      0.36062973	     23.42944159	     31.76630798	     -7.50126290	     26.93692525	    -23.11667925	    -29.44701366	     42.02407254	     -8.50103736	      0.73345843	     17.61250691	     28.63243814	     -7.50126290	    -26.90796070	      9.25673393	      2.58639036	     -8.38974886	     -2.61237607	    -12.76824387	    103.65002239	     90.00000001	      0.00000000	      0.00000000	      3.92882819	     -8.59647491	    -19.16570571	     44.86591694	     90.00000001	      0.00000000	      0.00000000
      4.56000000	      0.48335573	    -11.07278820	     -9.28209269	     -0.78730408	      0.82680790	      0.31279544	      1.53349316	     10.34085212	    -22.32240641	     20.68808675	     -2.75570878	      0.36107523	     23.41593014	     31.66921873	     -7.50125700	     26.65212811	    -22.99074026	    -29.36512067	     41.87816492	     -8.52661483	      0.73091186	     17.59553629	     28.60620485	     -7.50125700	    -26.73277942	      9.27338127	      2.54647573	     -8.44802712	     -2.58715319	    -12.80969463	    103.63949936	     90.00000001	      0.00000000	      0.00000000	      3.76695626	     -8.62568929	    -19.21058376	     44.78490909	     90.00000001	      0.00000000	      0.00000000
      4.57000000	      0.88444520	    -10.91541486	     -9.59679786	     -0.78399161	      0.82789296	      0.31146148	      0.74046783	     10.01953340	    -21.55515056	     20.45939227	     -2.67005034	      0.35708376	     23.42762763	     31.09959429	     -7.50122022	     25.53031558	    -22.55303730	    -29.58174287	     41.35819727	     -8.42449529	      0.72183671	     17.52340209	     28.42437206	     -7.50122022	    -27.03659180	      8.87448333	      2.60895672	     -8.40340021	     -2.47368868	    -12.90989560	    103.49177952	     90.00000001	      0.00000000	      0.00000000	      3.84128280	     -8.66353013	    -19.39667266	     44.55413271	     90.00000001	      0.00000000	      0.00000000
      4.58000000	      0.79330255	    -10.99261035	     -9.79807988	     -0.78079313	      0.82805441	      0.30998569	      0.61285242	     10.00001858	    -21.47662944	     20.50812231	     -2.74929395	      0.35793426	     23.40060985	     31.04320759	     -7.50121767	     25.33625021	    -22.43309297	    -29.40704463	     41.38017823	     -8.47791532	      0.72222036	     17.50247311	     28.40468685	     -7.50121767	    -26.80494346	      8.90857611	      2.60704104	     -8.44225264	     -2.44561879	    -12.91027859	    103.47311118	     90.00000001	      0.00000000	      0.00000000	      3.72875535	     -8.65642239	    -19.40180365	     44.52243008	     90.00000001	      0.00000000	      0.00000000
      4.59000000	      1.20021910	    -10.76167783	    -10.14150193	     -0.77750170	      0.82940482	      0.30862483	     -0.14203971	      9.63250071	    -20.65424058	     20.30909076	     -2.74460606	      0.35446050	     23.26952173	     30.29387723	     -7.50117798	     24.11783502	    -21.88521659	    -29.23203294	     40.84285644	     -8.07040285	      0.71284232	     17.54962409	     27.77055375	     -7.50117798	    -27.10576303	      8.42128269	      2.63569133	     -8.41396611	     -2.29040567	    -12.91974901	    103.28981097	     90.00000001	      0.00000000	      0.00000000	      3.78120781	     -8.75000138	    -19.50698937	     44.29338932	     90.00000001	      0.00000000	      0.00000000
      4.60000000	      1.12013062	    -10.81111854	    -10.36833607	     -0.77427093	      0.82985026	      0.30703662	     -0.26485102	      9.58991589	    -20.54201530	     20.36916464	     -2.86251100	      0.35550899	     23.21422727	     30.21592903	     -7.50117458	     23.86607934	    -21.73362518	    -29.01686972	     40.86150289	     -8.06741702	      0.71316776	     17.54089166	     27.73732437	     -7.50117458	    -26.89224068	      8.44192823	      2.62580742	     -8.48696780	     -2.24780005	    -12.90257357	    103.25589668	     90.00000001	      0.00000000	      0.00000000	      3.65430699	     -8.74153525	    -19.51199109	     44.24978760	     90.00000001	      0.00000000	      0.00000000
      4.61000000	      1.33802617	    -10.58583423	    -10.72050797	     -0.77112527	      0.83107042	      0.30571606	     -0.67454187	      9.28703834	    -20.04182440	     20.40352549	     -3.06536858	      0.35610870	     22.91459717	     29.74806019	     -7.50115971	     22.88016725	    -21.30153058	    -28.57574600	     40.41514847	     -7.36191892	      0.70537741	     17.75720483	     27.31707221	     -7.50115971	    -26.96005987	      7.99027896	      2.65996372	     -8.45906414	     -2.14251625	    -12.75311754	    103.09556893	     90.00000001	      0.00000000	      0.00000000	      3.69796259	     -8.85533734	    -19.54785112	     44.09715229	     90.00000001	      0.00000000	      0.00000000
      4.62000000	      1.27765870	    -10.64206116	    -10.91092977	     -0.76790607	      0.83176978	      0.30399263	     -0.82430251	      9.23013354	    -19.96584626	     20.46126986	     -3.10756588	      0.35711653	     22.83887134	     29.63561622	     -7.50115667	     22.60332008	    -21.15465326	    -28.43197764	     40.42479291	     -7.36820023	      0.70554574	     17.74563189	     27.21836097	     -7.50115667	    -26.75880557	      8.03784038	      2.65973719	     -8.51705904	     -2.08052332	    -12.71988031	    103.07981881	     90.00000001	      0.00000000	      0.00000000	      3.60580188	     -8.84280115	    -19.54945365	     44.06854618	     90.00000001	      0.00000000	      0.00000000
      4.63000000	      1.94763723	    -10.30621610	    -11.24683264	     -0.76458055	      0.83401179	      0.30235433	     -1.81113039	      8.54942846	    -19.27102091	     20.39587475	     -2.86532958	      0.35597517	     22.08256294	     28.36013908	     -7.50112733	     20.91658518	    -20.43806610	    -28.34257418	     39.61890760	     -6.69453110	      0.69148038	     17.84279064	     25.81211531	     -7.50112733	    -27.30948204	      7.39036856	      2.64142580	     -8.43941214	     -1.93800114	    -12.51725121	    103.01746787	     90.00000001	      0.00000000	      0.00000000	      3.70857198	     -8.95054335	    -19.59418003	     43.92552298	     90.00000001	      0.00000000	      0.00000000
